<svg width="80" height="47" viewBox="0 0 80 47" fill="none" xmlns="http://www.w3.org/2000/svg">
<g id="logo" clip-path="url(#clip0_2113_106)">
<path id="Vector" d="M70.3331 34.6171C70.0196 34.6171 69.7844 34.4669 69.6015 34.1163C69.4448 33.8159 69.3403 33.3151 69.3403 32.7142V14.2361C69.3403 13.6352 69.4186 13.1344 69.6015 12.8339C69.7844 12.5335 70.0196 12.3833 70.3331 12.3833H72.0836C72.4755 12.3833 72.8151 12.4333 73.1025 12.4834C73.3899 12.5836 73.6512 12.7338 73.8341 13.0342C74.0431 13.3347 74.1737 13.7353 74.2782 14.3362C74.3827 14.8871 74.435 15.6883 74.435 16.6397V30.3606C74.435 31.6125 74.3566 32.5139 74.1737 33.1148C73.9908 33.7157 73.7296 34.1163 73.3899 34.3166C73.0503 34.5169 72.6061 34.6171 72.0836 34.567L70.3331 34.6171ZM64.7158 1.61687C64.4023 1.66695 64.141 1.81718 63.9843 2.11764C63.8275 2.41809 63.7491 2.91886 63.7491 3.51977V43.4806C63.7491 44.0815 63.8275 44.5322 64.0104 44.8827C64.1672 45.1832 64.4284 45.3835 64.742 45.3835H72.0052C73.5205 45.3835 74.8269 45.083 75.8719 44.4821C76.917 43.8812 77.7531 42.9297 78.3801 41.7279C79.0071 40.5261 79.4774 38.9236 79.7387 37.0208C80.0261 35.1179 80.1567 32.9145 80.1567 30.3606V16.6397C80.1567 14.0858 80.0261 11.8825 79.7387 9.9796C79.4513 8.0767 79.0071 6.52434 78.3801 5.32251C77.7531 4.07061 76.917 3.16924 75.8719 2.56832C74.8269 1.96741 73.5467 1.66695 72.0052 1.66695L64.7158 1.61687ZM55.2057 28.007C55.2057 29.2089 55.1796 30.3105 55.1535 31.262C55.1012 32.2134 54.9967 33.0147 54.8399 33.7157C54.6832 34.4168 54.4219 34.9176 54.0561 35.2681C53.7165 35.6186 53.2462 35.8189 52.6453 35.8189C52.0444 35.8189 51.5741 35.6186 51.2345 35.2681C50.8687 34.9176 50.6335 34.4168 50.4506 33.7157C50.2939 33.0647 50.1894 32.2134 50.1371 31.262C50.0849 30.3105 50.0587 29.2089 50.0849 28.007V18.9933C50.0849 17.7915 50.111 16.6898 50.1371 15.7384C50.1894 14.7869 50.2939 13.9857 50.4506 13.2846C50.6074 12.5836 50.8687 12.0828 51.2345 11.7323C51.5741 11.3817 52.0444 11.1814 52.6453 11.1814C53.2462 11.1814 53.7165 11.3817 54.0561 11.7323C54.4219 12.0828 54.657 12.5836 54.8399 13.2846C54.9967 13.9356 55.1012 14.7869 55.1535 15.7384C55.2057 16.6898 55.2057 17.7915 55.2057 18.9933V28.007ZM60.7968 15.6883C60.7968 14.9872 60.7707 14.1359 60.7184 13.1344C60.6662 12.1329 60.5617 11.0813 60.3788 9.92952C60.1959 8.77777 59.9346 7.6761 59.595 6.57442C59.2292 5.47274 58.7589 4.47122 58.158 3.56985C57.5571 2.66847 56.7994 1.91733 55.885 1.36649C54.9706 0.815655 53.8732 0.565274 52.593 0.515198C51.3128 0.515198 50.2155 0.815655 49.3011 1.36649C48.3866 1.91733 47.629 2.66847 47.028 3.56985C46.4271 4.47122 45.9569 5.47274 45.5911 6.57442C45.2253 7.6761 44.964 8.82785 44.8073 9.92952C44.6244 11.0813 44.5199 12.1329 44.4676 13.1344C44.4154 14.1359 44.3892 14.9872 44.3892 15.6883V31.3121C44.3892 32.0131 44.4154 32.8644 44.4676 33.8659C44.5199 34.8675 44.6244 35.9191 44.8073 37.0708C44.964 38.2226 45.2514 39.3243 45.5911 40.4259C45.9569 41.5276 46.4271 42.5291 47.028 43.4806C47.629 44.382 48.3866 45.1331 49.3011 45.6339C50.2155 46.1847 51.3128 46.4852 52.593 46.4852C53.8732 46.4852 54.9706 46.1847 55.885 45.6339C56.7994 45.083 57.5571 44.382 58.158 43.4806C58.7589 42.5792 59.2292 41.5777 59.595 40.4259C59.9608 39.3243 60.222 38.1725 60.3788 37.0708C60.5356 35.9191 60.6662 34.8675 60.7184 33.8659C60.7707 32.8644 60.7968 32.0131 60.7968 31.3121V15.6883ZM36.2116 28.007C36.2116 29.2089 36.1855 30.3105 36.1593 31.262C36.1071 32.2134 36.0026 33.0147 35.8458 33.7157C35.6891 34.4168 35.4278 34.9176 35.062 35.2681C34.7224 35.6186 34.2521 35.8189 33.6512 35.8189C33.0503 35.8189 32.58 35.6186 32.2403 35.2681C31.8746 34.9176 31.6394 34.4168 31.4565 33.7157C31.2998 33.0647 31.1953 32.2134 31.143 31.262C31.0908 30.3105 31.0646 29.2089 31.0908 28.007V18.9933C31.0908 17.7915 31.1169 16.6898 31.143 15.7384C31.1953 14.7869 31.2998 13.9857 31.4565 13.2846C31.6133 12.5836 31.8746 12.0828 32.2403 11.7323C32.58 11.3817 33.0503 11.1814 33.6512 11.1814C34.2521 11.1814 34.7224 11.3817 35.062 11.7323C35.4278 12.0828 35.6629 12.5836 35.8458 13.2846C36.0026 13.9356 36.1071 14.7869 36.1593 15.7384C36.2116 16.6898 36.2116 17.7915 36.2116 18.9933V28.007ZM41.8288 15.6883C41.8288 14.9872 41.8027 14.1359 41.7505 13.1344C41.6982 12.1329 41.5937 11.0813 41.4108 9.92952C41.2279 8.77777 40.9667 7.6761 40.627 6.57442C40.2612 5.47274 39.791 4.47122 39.19 3.56985C38.5891 2.66847 37.8314 1.91733 36.917 1.36649C36.0026 0.815655 34.9053 0.565274 33.625 0.515198C32.3448 0.515198 31.2475 0.815655 30.3331 1.36649C29.4186 1.91733 28.661 2.66847 28.0601 3.56985C27.4591 4.47122 26.9889 5.47274 26.6231 6.57442C26.2573 7.6761 25.996 8.82785 25.8393 9.92952C25.6564 11.0813 25.5519 12.1329 25.4996 13.1344C25.4474 14.1359 25.4213 14.9872 25.4213 15.6883V31.3121C25.4213 32.0131 25.4474 32.8644 25.4996 33.8659C25.5519 34.8675 25.6564 35.9191 25.8393 37.0708C25.996 38.2226 26.2834 39.3243 26.6231 40.4259C26.9889 41.5276 27.4591 42.5291 28.0601 43.4806C28.661 44.382 29.4186 45.1331 30.3331 45.6339C31.2475 46.1847 32.3448 46.4852 33.625 46.4852C34.9053 46.4852 36.0026 46.1847 36.917 45.6339C37.8314 45.083 38.5891 44.382 39.19 43.4806C39.791 42.5792 40.2612 41.5777 40.627 40.4259C40.9928 39.3243 41.254 38.1725 41.4108 37.0708C41.5676 35.9191 41.6982 34.8675 41.7505 33.8659C41.8027 32.8644 41.8288 32.0131 41.8288 31.3121V15.6883ZM22.5473 1.61687C23.2005 1.61687 23.514 2.26786 23.514 3.46969V10.4804C23.514 11.0813 23.4356 11.532 23.2789 11.8825C23.1221 12.233 22.8608 12.3833 22.5473 12.3833H14.03C13.7165 12.3833 13.4813 12.5335 13.2985 12.8339C13.1156 13.1344 13.0372 13.6352 13.0372 14.2361V43.5307C13.0372 44.1316 12.9588 44.5823 12.8021 44.9328C12.6453 45.2332 12.384 45.4336 12.0705 45.4336H8.22988C7.91635 45.4336 7.68121 45.2833 7.49833 44.9328C7.34157 44.5823 7.23706 44.1316 7.23706 43.5307V3.51977C7.23706 2.91886 7.31544 2.41809 7.49833 2.11764C7.68121 1.81718 7.91635 1.66695 8.22988 1.66695L22.5473 1.61687Z" fill="#B59571"/>
<g id="Group">
<path id="Vector_2" d="M15.2841 25.4031C12.8543 25.0025 0.992788 28.7081 0.104479 24.702C-1.38474 18.0419 11.0777 21.7976 12.7498 21.8977C13.5859 21.9478 14.6309 22.2483 15.2318 21.9478C15.6499 21.6974 15.9373 20.3954 16.4075 19.8947C17.4526 18.6929 19.1509 19.3438 20.6139 19.5942C21.6068 19.7445 22.5735 19.9448 23.6185 20.095C22.1293 20.4956 20.5356 20.8962 18.968 21.2968C18.7851 21.3469 18.4977 21.1967 18.3671 21.5973C19.9608 22.098 21.7635 22.1982 23.4879 22.4486C21.7896 22.9493 19.8824 23.0495 18.2103 23.6504C18.3148 24.0009 18.6283 23.9008 18.8112 23.9509C20.3004 24.1512 21.9464 24.4015 23.514 24.5518C21.8942 25.0525 20.013 25.1527 18.3932 25.7536C18.4454 26.2544 18.7851 26.1041 18.9418 26.1041C20.4311 26.4547 22.1032 26.8553 23.6446 27.1057C21.9464 27.356 19.8563 28.1072 18.1058 28.3075C16.7472 28.4577 15.9373 26.9554 15.2841 25.4031Z" fill="#B59571"/>
</g>
<g id="Group_2">
<path id="Vector_3" d="M11.0777 25.8036C12.9588 25.5032 14.5525 25.2528 15.2841 25.353C15.6237 26.1542 15.9634 26.9053 16.4336 27.4562C16.8778 28.007 17.4003 28.3575 18.0796 28.2574C19.0463 28.1572 20.1175 27.8568 21.1626 27.6064C21.9202 27.4061 22.6518 27.2058 23.3311 27.1056C22.6518 27.0055 21.9725 26.8552 21.2671 26.705C20.4571 26.5548 19.6733 26.3545 18.9418 26.1542H18.8112C18.6283 26.1542 18.3931 26.1542 18.367 25.7536V25.7035H18.3931C19.2814 25.353 20.2743 25.1527 21.2671 25.0024C21.9464 24.9023 22.6257 24.752 23.2527 24.6018C22.077 24.4516 20.849 24.3014 19.6995 24.1511C19.4121 24.1011 19.1247 24.051 18.8373 24.051H18.7067C18.5238 24.051 18.3148 24.051 18.2102 23.7505L18.1841 23.7004H18.2102C19.1508 23.3499 20.1698 23.1496 21.1887 22.9994C21.868 22.8992 22.5734 22.749 23.2266 22.5988C22.8869 22.5487 22.5212 22.4986 22.1815 22.4485C20.8752 22.2983 19.5427 22.1481 18.367 21.7975H18.3148L18.3409 21.7475C18.4454 21.447 18.6283 21.447 18.785 21.447H18.9418L20.1959 21.1466C21.2409 20.8962 22.3121 20.5957 23.305 20.3453C22.704 20.2452 22.1031 20.145 21.5283 20.0449C21.2148 19.9948 20.9274 19.9447 20.5878 19.8947L19.804 19.7444C18.5499 19.494 17.2436 19.1936 16.4075 20.1951C16.1985 20.4455 16.0156 20.8461 15.8588 21.2467C15.6498 21.6974 15.4669 22.1481 15.2318 22.2983C14.8138 22.4986 14.1867 22.4485 13.5597 22.3484C13.2723 22.2983 12.9849 22.2482 12.7236 22.2482C12.4362 22.2482 11.8353 22.098 11.0515 21.9478C8.22984 21.0965 2.92612 20.0449 0.862111 21.7475C0.130563 22.3484 -0.182958 23.2498 0.130563 24.702C0.731477 27.4562 6.68837 26.5047 11.0777 25.8036ZM15.2841 25.4531C14.5525 25.353 12.9588 25.6033 11.0777 25.9038C6.68837 26.6049 0.705351 27.5563 0.0783096 24.702C-0.261338 23.1997 0.0783096 22.2482 0.835984 21.5972C2.92612 19.8946 8.22984 20.9463 11.0777 21.4971C11.8615 21.6473 12.4624 21.7975 12.7498 21.7975C13.011 21.7975 13.2984 21.8476 13.5858 21.8977C14.2129 21.9979 14.8138 22.0479 15.2318 21.8476C15.4408 21.7475 15.6237 21.2968 15.8327 20.8461C16.0156 20.4455 16.1724 20.0449 16.4075 19.7945C17.2697 18.793 18.576 19.0934 19.8562 19.3438L20.64 19.494C20.9274 19.5441 21.2671 19.5942 21.5806 19.6443C22.2599 19.7444 22.9392 19.8946 23.6446 19.9447L23.932 19.9948L23.6707 20.095C22.5995 20.3954 21.45 20.6959 20.3004 20.9963L19.0463 21.2968H18.8895C18.7589 21.2968 18.6021 21.2968 18.4976 21.4971C19.6733 21.8476 20.9797 21.9979 22.286 22.1481C22.7302 22.1982 23.1482 22.2482 23.5924 22.2983L23.8536 22.3484L23.5924 22.3985C22.8608 22.5988 22.077 22.749 21.2932 22.8992C20.3004 23.0995 19.2814 23.2498 18.367 23.6003C18.4454 23.8006 18.6283 23.8006 18.785 23.8006H18.9157C19.2031 23.8507 19.4905 23.9007 19.7779 23.9007C21.0319 24.1011 22.3383 24.2513 23.5924 24.4015L23.8536 24.4516L23.5924 24.5517C22.8608 24.752 22.1031 24.9023 21.3455 25.0525C20.3788 25.2528 19.4121 25.403 18.5238 25.7536C18.576 26.054 18.7589 26.0039 18.9157 26.0039H19.0463C19.804 26.1542 20.5878 26.3545 21.3716 26.5548C22.1554 26.705 22.9653 26.9053 23.723 27.0055V27.1056C22.9653 27.2058 22.1031 27.4562 21.2409 27.6565C20.1959 27.9068 19.1247 28.2073 18.158 28.3075C17.4787 28.4076 16.93 28.0571 16.4859 27.5062C15.9634 27.0055 15.5976 26.2543 15.2841 25.4531Z" fill="#B59571"/>
</g>
</g>
<defs>
<clipPath id="clip0_2113_106">
<rect width="80" height="46" fill="white" transform="translate(0 0.5)"/>
</clipPath>
</defs>
</svg>
